<svg xmlns="http://www.w3.org/2000/svg" width="80.081" height="66.319" viewBox="0 0 80.081 66.319">
  <g id="check" transform="translate(0.184 0.5)">
    <g id="グループ_8" data-name="グループ 8" transform="translate(20.256 25.926)">
      <g id="グループ_7" data-name="グループ 7">
        <path id="パス_200" data-name="パス 200" d="M331.053,585.005a3.325,3.325,0,0,0-3.322-3.486h3.338a3.388,3.388,0,0,0,3.417-3.163,3.325,3.325,0,0,0-3.322-3.486h2.051a3.388,3.388,0,0,0,3.414-3.166,3.325,3.325,0,0,0-3.319-3.486L325.266,568H346.3a3.388,3.388,0,0,0,3.417-3.163,3.325,3.325,0,0,0-3.322-3.486H322.589a.751.751,0,0,1-.568-1.242l4.519-5.222a3.387,3.387,0,0,0-.317-4.778h0a3.384,3.384,0,0,0-4.775.317h0a50.38,50.38,0,0,1-17.767,12.994h0a1.924,1.924,0,0,0-1.152,1.763v14.939a3.468,3.468,0,0,0,2.053,3.169l8.755,3.906a11.156,11.156,0,0,0,4.54.967h9.762A3.386,3.386,0,0,0,331.053,585.005Z" transform="translate(-302.528 -549.276)" fill="#fff" stroke="#070304" stroke-linecap="round" stroke-linejoin="round" stroke-width="2"/>
        <line id="線_1" data-name="線 1" x2="6.864" transform="translate(21.879 25.593)" fill="none" stroke="#070304" stroke-linecap="round" stroke-linejoin="round" stroke-width="2"/>
        <line id="線_2" data-name="線 2" x2="3.861" transform="translate(21.021 32.243)" fill="none" stroke="#070304" stroke-linecap="round" stroke-linejoin="round" stroke-width="2"/>
      </g>
    </g>
    <g id="グループ_10" data-name="グループ 10" transform="translate(13.081)">
      <g id="グループ_9" data-name="グループ 9">
        <path id="パス_201" data-name="パス 201" d="M300.492,548.74a5.046,5.046,0,0,1,2.722-7.344,5.215,5.215,0,0,1,4-.09.513.513,0,0,1,.322.272c.055.169-.037.338-.262.415a.725.725,0,0,1-.481-.045,4.316,4.316,0,0,0-3.335.053,4.4,4.4,0,0,0-2.246,6.379c1.208,2.384,3.56,3.694,5.9,2.751a3.919,3.919,0,0,0,2.151-1.985.571.571,0,0,1,.3-.309.3.3,0,0,1,.415.188.538.538,0,0,1-.071.4,4.707,4.707,0,0,1-2.556,2.31C304.623,552.836,301.906,551.424,300.492,548.74Z" transform="translate(-299.813 -537.023)" fill="#070304" stroke="#707070" stroke-width="1"/>
        <path id="パス_202" data-name="パス 202" d="M305.717,546.627q.642,2.39,1.287,4.778a.363.363,0,1,1-.7.193q-1.38-4.872-2.762-9.743a.428.428,0,0,1,.824-.227q.587,2.184,1.176,4.368a58.458,58.458,0,0,1,6.694-1.387l-.658-4.477a.425.425,0,0,1,.84-.119q.67,5.018,1.343,10.037a.359.359,0,1,1-.706.1c-.243-1.633-.481-3.264-.724-4.9A57.723,57.723,0,0,0,305.717,546.627Z" transform="translate(-293.709 -539.144)" fill="#070304" stroke="#707070" stroke-width="1"/>
        <path id="パス_203" data-name="パス 203" d="M315.18,549.594c.259.011.4.164.4.341a.357.357,0,0,1-.418.312,52.437,52.437,0,0,0-5.835.114.326.326,0,0,1-.381-.315q-.408-5.015-.814-10.029c-.018-.211.132-.357.4-.375a63.894,63.894,0,0,1,6.9-.14c.3.01.481.164.473.346s-.2.317-.494.307a63.166,63.166,0,0,0-6.409.108l.285,4.173q1.994-.135,3.99-.135c.283,0,.449.148.449.328s-.172.323-.449.325q-1.974,0-3.948.132.158,2.3.314,4.6A53.886,53.886,0,0,1,315.18,549.594Z" transform="translate(-286.155 -539.465)" fill="#070304" stroke="#707070" stroke-width="1"/>
        <path id="パス_204" data-name="パス 204" d="M311.654,544.652a5,5,0,0,1,6.01-4.9,5.151,5.151,0,0,1,3.433,1.974.51.51,0,0,1,.135.4c-.037.174-.2.27-.436.219a.7.7,0,0,1-.386-.286,4.25,4.25,0,0,0-2.851-1.662c-2.992-.473-4.931,1.676-5.124,4.318-.2,2.664,1.1,5,3.557,5.388a3.848,3.848,0,0,0,2.833-.6.571.571,0,0,1,.418-.108.3.3,0,0,1,.256.375.533.533,0,0,1-.264.307,4.66,4.66,0,0,1-3.348.671C313.023,550.292,311.48,547.681,311.654,544.652Z" transform="translate(-280.384 -539.13)" fill="#070304" stroke="#707070" stroke-width="1"/>
        <path id="パス_205" data-name="パス 205" d="M315.326,550.372l2.64-9.775a.428.428,0,0,1,.825.23l-1.641,5.764a54.655,54.655,0,0,1,8.52-3.583.7.7,0,0,1,.521-.013c.211.09.3.251.227.418a.457.457,0,0,1-.33.248q-2.624.829-5.069,1.876a61.448,61.448,0,0,1,1.628,7.17.583.583,0,0,1-.029.325.307.307,0,0,1-.439.151.48.48,0,0,1-.24-.4,61.278,61.278,0,0,0-1.631-6.932q-1.768.793-3.425,1.689l-.864,3.031a.362.362,0,1,1-.692-.193Z" transform="translate(-274.362 -538.098)" fill="#070304" stroke="#707070" stroke-width="1"/>
        <path id="パス_206" data-name="パス 206" d="M318.868,551.067a.56.56,0,0,1,1,.5.561.561,0,0,1-1-.5Zm1.269-2.162q1.649-3.385,3.3-6.768a.389.389,0,0,1,.547-.169.4.4,0,0,1,.214.547q-1.7,3.362-3.391,6.723a.369.369,0,0,1-.518.18A.365.365,0,0,1,320.137,548.9Z" transform="translate(-268.586 -535.436)" fill="#070304" stroke="#707070" stroke-width="1"/>
      </g>
    </g>
    <path id="パス_207" data-name="パス 207" d="M308.367,555.357a102.187,102.187,0,0,1-13.5-12.209" transform="translate(-294.863 -533.416)" fill="#fff" stroke="#070304" stroke-miterlimit="10" stroke-width="0.5"/>
    <path id="パス_208" data-name="パス 208" d="M319.917,555.357a102.187,102.187,0,0,0,13.5-12.209" transform="translate(-253.707 -533.416)" fill="#fff" stroke="#070304" stroke-miterlimit="10" stroke-width="0.5"/>
  </g>
</svg>
