<svg xmlns="http://www.w3.org/2000/svg" width="111.506" height="76.067" viewBox="0 0 111.506 76.067">
  <g id="leaf_left" transform="translate(-3 47.527) rotate(-74)">
    <g id="グループ_151" data-name="グループ 151" transform="matrix(0.995, 0.105, -0.105, 0.995, 10.883, 0)">
      <path id="パス_1410" data-name="パス 1410" d="M9.228,2.829a6.923,6.923,0,0,1-.339,3.2c-1.168,3.072-4.123,5.046-6.8,6.658-.128.07-.362.164-.6.28C1.087,12.278.316,11.2,0,10.76A12.664,12.664,0,0,1,2.15,2.841C3.236,1.345,5.5-.512,7.418.131,8.773.586,9.053,1.38,9.228,2.829Z" transform="translate(28.421 76.289)" fill="#98d4bc"/>
      <path id="パス_1411" data-name="パス 1411" d="M11.8,2.583c2.5,1.846,5.28,4.287,5.957,7.464-1.951,2.254-7.335.864-9.835.269C4.419,9.475-1.258,7.279.249,2.548,1.733-2.077,9.138.633,11.8,2.583Z" transform="translate(7.919 79.875)" fill="#98d4bc"/>
      <path id="パス_1412" data-name="パス 1412" d="M15.553,7.373c.012.409.023.806.07,1.191a1.87,1.87,0,0,0,.128.456,20.334,20.334,0,0,1-7.826-.175A13.571,13.571,0,0,1,2.669,6.076C1.139,4.8-1.863.9,1.607.073A10.3,10.3,0,0,1,5.356.517a17.226,17.226,0,0,1,6.109,2.336,10.551,10.551,0,0,1,4.041,4.31A1.358,1.358,0,0,1,15.553,7.373Z" transform="translate(3.139 57.308)" fill="#98d4bc"/>
      <path id="パス_1413" data-name="パス 1413" d="M8.725.085c3.154-.631,3.726,2.395,2.873,4.777-1.11,3.119-3.831,5.4-6.179,7.592-.666.619-2.173,2.278-3.037,2.418a2.682,2.682,0,0,1-1.8-.607,6.368,6.368,0,0,1-.339-.619A.972.972,0,0,1,.2,13.47c-.07-.315-.14-.642-.2-.958a18.26,18.26,0,0,1,3.411-8.3C4.766,2.222,6.272.575,8.725.085Z" transform="translate(21.075 51.538)" fill="#98d4bc"/>
      <path id="パス_1414" data-name="パス 1414" d="M11.559,7.8a.931.931,0,0,0-.105.759c-.42.105-.841.21-1.273.35C6.852,9.964,2.6,7.8.743,4.895-2.293.153,4.761-1.074,7.752.912c1.472.97,2.359,3.014,3.271,4.509.315.526.654,1.051.981,1.577-.152.245-.292.479-.42.713C11.571,7.745,11.571,7.768,11.559,7.8Z" transform="translate(2.776 36.273)" fill="#98d4bc"/>
      <path id="パス_1415" data-name="パス 1415" d="M4.882,10.632c-.946.432-2.7,1.32-3.773,1.18a1.715,1.715,0,0,1-.491-.152,1.188,1.188,0,0,0,.257-1.2A1.667,1.667,0,0,0,.783,10.2c0-.023-.012-.047-.012-.07A13.971,13.971,0,0,0,0,8.238V8.191A34,34,0,0,1,3.808,3.834,23.54,23.54,0,0,1,7.254,1.113C8.059.587,9.087-.231,10.115.061c1.215.362,1.518,1.9,1.542,3.2C11.7,7.35,8.176,9.149,4.882,10.632Z" transform="translate(17.722 35.103)" fill="#98d4bc"/>
      <path id="パス_1416" data-name="パス 1416" d="M8.879,2.442c2.254,4.088,1.483,9.508-.888,13.444a35.66,35.66,0,0,1-2.967,3.925.913.913,0,0,0-.783.9c-.2.21-.4.432-.584.654C-.454,19.986-.372,12.394.446,9.135A34.51,34.51,0,0,1,2.525,3.762,9.642,9.642,0,0,1,3.938.924C5.947-1.132,7.886.632,8.879,2.442Z" transform="translate(9.568 2.295)" fill="#98d4bc"/>
      <path id="パス_1417" data-name="パス 1417" d="M17.559,18.181c2.371-3.936,3.142-9.356.888-13.444-.993-1.811-2.932-3.574-4.941-1.519a9.642,9.642,0,0,0-1.413,2.838,34.51,34.51,0,0,0-2.079,5.373c-.818,3.259-.9,10.851,3.212,12.229.187-.222.385-.444.584-.654a.913.913,0,0,1,.783-.9A35.656,35.656,0,0,0,17.559,18.181Zm-1.717,72.01c2.5.6,7.884,1.986,9.835-.269C25,86.745,22.219,84.3,19.72,82.458c-2.663-1.951-10.069-4.66-11.552-.035C6.661,87.154,12.338,89.35,15.842,90.191ZM29.379,38.365c-.023-1.3-.327-2.838-1.542-3.2-1.028-.292-2.056.526-2.862,1.051a23.543,23.543,0,0,0-3.446,2.722,34,34,0,0,0-3.808,4.357v.047a13.974,13.974,0,0,1,.771,1.892c0,.023.012.047.012.07a1.672,1.672,0,0,1,.093.257,1.188,1.188,0,0,1-.257,1.2,1.713,1.713,0,0,0,.491.152c1.075.14,2.827-.748,3.773-1.18C25.9,44.252,29.426,42.453,29.379,38.365ZM32.673,56.4c.853-2.383.28-5.408-2.873-4.777-2.453.491-3.96,2.137-5.315,4.123a18.26,18.26,0,0,0-3.411,8.3c.058.315.128.642.2.958a.973.973,0,0,0,.047.175,6.368,6.368,0,0,0,.339.619,2.682,2.682,0,0,0,1.8.607c.864-.14,2.371-1.8,3.037-2.418C28.842,61.8,31.564,59.518,32.673,56.4Zm4.976,22.718c-.175-1.448-.456-2.243-1.81-2.7-1.916-.642-4.182,1.215-5.268,2.71a12.664,12.664,0,0,0-2.149,7.919c.315.444,1.086,1.518,1.5,2.208.234-.117.467-.21.6-.28,2.675-1.612,5.63-3.586,6.8-6.658A6.923,6.923,0,0,0,37.649,79.118ZM10.527,37.185C7.537,35.2.482,36.426,3.519,41.168c1.857,2.908,6.109,5.069,9.438,4.018.432-.14.853-.245,1.273-.35a.931.931,0,0,1,.105-.759c.012-.035.012-.058.023-.093.128-.234.269-.467.42-.713-.327-.526-.666-1.051-.981-1.577C12.887,40.2,12,38.155,10.527,37.185Zm-5.782,20.2c-3.469.829-.467,4.731,1.063,6a13.57,13.57,0,0,0,5.256,2.768,20.332,20.332,0,0,0,7.826.175,1.87,1.87,0,0,1-.128-.455c-.047-.385-.058-.783-.07-1.191a1.357,1.357,0,0,0-.047-.21,10.55,10.55,0,0,0-4.041-4.31,17.224,17.224,0,0,0-6.109-2.336A10.3,10.3,0,0,0,4.745,57.381Zm1.647-10.5c-3.2-1.916-7.756-5.735-6-10.034,1.577-3.89,7.16-3.983,10.431-2.465a9.709,9.709,0,0,1,3.9,3.983c-.432-3.96-.829-7.978-.923-11.937a1.294,1.294,0,0,1-1.191-.654c-4.275-1.448-5.642-7.265-5.478-11.307.128-3.329,1.332-6.249,2.628-9.274C10.632,3.16,11.52.871,13.856.217c5.431-1.53,8.27,5.4,8.445,9.636a19.31,19.31,0,0,1-2.138,8.7,17.438,17.438,0,0,1-2.383,3.352c-.269.339-.923.993-1.542,1.682,0,.035.012.058.012.082-.082,3.749.6,7.429.806,11.167.093,1.659.21,3.305.339,4.952.374-.432.748-.841,1.1-1.215a22.534,22.534,0,0,1,6.448-5.093c4.427-2.1,6.9,1.308,6.891,5.548-.012,5.245-5.665,8.106-10.045,9.5a7.224,7.224,0,0,1-3.422.409c.42,3.247.969,6.494,1.589,9.718a17.842,17.842,0,0,1,5.957-8.048c3.714-2.488,8.281-2.138,9.333,2.57,1.191,5.315-3.7,9.344-7.078,12.6-2.394,2.324-3.9,3.27-6.05,2.57,1.285,4.731,2.943,9.379,4.5,14.028.771-3.317,2.558-6.354,5.84-7.861,4.322-1.986,7.394.969,7.522,5.28.14,5.221-4.52,9.905-9.111,11.821a2.252,2.252,0,0,1-1.191.187c.28.794.584,1.565.911,2.336a47.17,47.17,0,0,1,3.2,8.608c.35,1.752-2.149,1.822-2.488.175-.689-3.411-2.686-6.751-3.866-10.033-.058-.152-.105-.315-.164-.467a5.165,5.165,0,0,1-4.006,1.308,32.9,32.9,0,0,1-9.286-1.355c-4.649-1.448-9.8-4.859-8.445-10.536,1.5-6.284,9.309-5,13.678-2.7a21.582,21.582,0,0,1,5.034,3.691c-1.448-4.812-3.224-9.508-4.59-14.344-4.637.432-9.029.642-13.3-2.009C3.484,64.693-1.188,60.523,1.4,56.692c1.951-2.873,7.744-1.273,10.279-.385a19.476,19.476,0,0,1,5.992,3.352c-.771-4.053-1.425-8.153-1.951-12.253-1.121.269-2.114.689-3.364.876A9.357,9.357,0,0,1,6.392,46.88Z" transform="translate(0 0)"/>
    </g>
  </g>
</svg>
