<svg xmlns="http://www.w3.org/2000/svg" width="26.414" height="34.633" viewBox="0 0 26.414 34.633">
  <g id="title_left" transform="translate(-94.961 -88.636) rotate(24)">
    <path id="パス_1460" data-name="パス 1460" d="M126.119,45.025l.028-.015,0-.02A.291.291,0,0,0,126.119,45.025Z" fill="#fbdd6c"/>
    <path id="パス_1461" data-name="パス 1461" d="M126.1,45.047l.021-.022-.02.007Z" fill="#fbdd6c"/>
    <path id="パス_1462" data-name="パス 1462" d="M133.177,48.724c.6.029.788-.593,1.134-.3a2.207,2.207,0,0,1,.721-.821c-.219-.025-.553.009-.657-.074l.464-.24a2.238,2.238,0,0,0-.725-.6c-.339-.19-.511-.279-.689-.365-.159-.08-.321-.159-.632-.335-.08-.046-.088-.047-.145-.224a1.673,1.673,0,0,0-.809-1.068,1.771,1.771,0,0,1-.439-.343l-.012-.011a.852.852,0,0,1-.317.075l.205-.178a2.921,2.921,0,0,0-.348-.274c.142.51-1.186.332-1.984.943.546-.471-.933.031-1.1-.164,0,0-.882.274-.57-.112a8.8,8.8,0,0,0-1.124.381c-.013.132-.028.272-.041.4.012,0,.084.232.243.512a2.056,2.056,0,0,0,.762.8c.777.438.945.862,1.381.569.045-.027.418-.119.46-.145.188.147.446-.5.527-.416a2.607,2.607,0,0,0,.746.576c.084.048-.855.208-.8.376.093.281,1.19.6,1.751.916l.511.274a1.531,1.531,0,0,1,.364-.021c.5-.567-.437-.133.172-.634A1.451,1.451,0,0,1,133.177,48.724Z" fill="#fbdd6c"/>
    <path id="パス_1463" data-name="パス 1463" d="M140.145,53.259c.912-.148.666.314.929.516-.055-.353.356-.5.748-.626,0-.488-.257-.8-.786-1.153-.017-.012-.575-.043-.592-.055-.579-.343-.393-.517-.734-.452-.2.038-.215.04-.322-.02-.087-.057-.083-.054-.132-.253a1.928,1.928,0,0,0-.636-1.077c-.816.113-2.033-1.377-2.666-.861a.948.948,0,0,1-.1-.326,1.994,1.994,0,0,0-.379-.85l-.266.137.1.083c-.287.076-.382-.008-.666.068l.076.225c-.7-.274-1.765.833-2.477,1.287a.988.988,0,0,1,.334.312c.106.147.232.325.574.749.025.151.341.266.444.525a4.274,4.274,0,0,0,1.624-1.612c-.116.267.2.159.507.042a1.063,1.063,0,0,1-.389.963,1.328,1.328,0,0,1-.788.619l-.745.429c.022.36.587.176.946.537a1.07,1.07,0,0,0,.19.161,1.169,1.169,0,0,0,.9.122l.013-.1c.035.047.081.052.123.074.438-.112.377.27.645.1.1-.067.257-.161.217-.21.048.031.057.059.1.222a2.875,2.875,0,0,0,.178.5c.912-.132,1.808-.658,2.3-.517-.762.457-.23.242-.6.481a.364.364,0,0,0-.12-.257,5.042,5.042,0,0,0-1.451.485,1.727,1.727,0,0,0,.325.343c.187-.056,1.061-.15,1.23-.458C139.31,53.346,139.612,53.7,140.145,53.259Z" fill="#fbdd6c"/>
    <path id="パス_1464" data-name="パス 1464" d="M126.421,44.628l.028-.006.009,0,1.2-.2,1.124-.189q1.038-.178,1.98-.387l-.11-.075c-.755-.423-1.084-.872-1.534-.572-.013-.441-.769-.548-1.392-.918a4.465,4.465,0,0,0-1.489-.387c-.485-.276-1.71.573-2.156,1.3s.174.7.674.964c.195.108.506.651.691.678.319-.231.228.151.487.006C126.114,44.419,126.3,44.2,126.421,44.628Z" fill="#fbdd6c"/>
    <path id="パス_1465" data-name="パス 1465" d="M157.485,62.471c.129-.32.024-.521-.614-.452-.1.095-.346.471-.5.617a8.563,8.563,0,0,1-1.609,1.676,1.807,1.807,0,0,0,1.983.206,10.943,10.943,0,0,0,.772-.781C157.711,63.444,157.688,62.548,157.485,62.471Z" fill="#fbdd6c"/>
    <path id="パス_1466" data-name="パス 1466" d="M155.865,62.737a2.239,2.239,0,0,1-.2.253l-.454.54-.46.532a1.967,1.967,0,0,1-.216.228c-.141.026-.359-.133-.332-.11a5.415,5.415,0,0,1-.553-.361,6.557,6.557,0,0,0,1.159-.763c.1.053.191-.072.3-.194a3.307,3.307,0,0,1,.354-.187.472.472,0,0,0-.354.187l-.3.194-.042-.022c-.371-.013-.016-.614.591-.77.644-.393.563.114,1.127-.371l-.742-.107a9.449,9.449,0,0,0-2.222,2.005c-.047-.108-.063-.246-.4-.207-.287.035-.429-.27-.949-.613-.4-.263-1.354-.455-1.488-.635-.173-.237.4-.474.043-.512a2.072,2.072,0,0,1-1.014-.352,1.3,1.3,0,0,1-1.263-.218c-.266-.176-.719-.29-.825-.483.075-.028.12-.029.214-.071-.183-.028-.229-.09-.217-.167a2.574,2.574,0,0,0-1.077-.4,2.3,2.3,0,0,1-.471-.643.02.02,0,0,0-.008-.011c-.563.061.418-.687.349-.736-.174-.11-.569.314-.61.188-.371.224-.332-.178-.625.018a5.354,5.354,0,0,1-1.658-1.753l-.074-.22c-.087-.054-.087-.054-.294-.007-.338.08-.5-.074-1.1-.43a1.722,1.722,0,0,0-.693-.148,1.984,1.984,0,0,1-1.111-.545,5.671,5.671,0,0,1-1.348-1.078c-.033.049-.2-.458-.505-.495.626-.107,1.263-.228,1.883-.391.747.03-.482.349.108.362.766.138,1.145-.627,1.773-.821.224.036.777.584,1.136.8.092.051.092.051.3,0,.337-.077.462.258,1.06.615.61.389,1.175.557,1.233.942l-.747,1.523.82-1.3a1.471,1.471,0,0,0,.542.206,2.642,2.642,0,0,1,.993.393,1.985,1.985,0,0,1,.6.6,2.916,2.916,0,0,1-.3.177l-.68.389c-.724.812.021.486-.049.67a3.418,3.418,0,0,1,1.346-.713.635.635,0,0,0,.117.1,1.328,1.328,0,0,1,1.561.147,3.957,3.957,0,0,1,.815.6.215.215,0,0,1,.115-.068c.1.048,1.676.805,1.8.885a2.464,2.464,0,0,1,.7.677c.1.13-1.313.624-1.114.755.084.055,1.548-.361,1.722-.381.287-.036.438.04.957.382.42.277.923.4,1.047.6a.918.918,0,0,0,.318.326.659.659,0,0,1,.191.232A7.2,7.2,0,0,1,155.865,62.737Zm-5.24-3.707a1.951,1.951,0,0,0-.461.145c.191-.485-.581.179-.975.266l-.714.591c.207-.054.412-.112.619-.149l.192-.2c.286-.051.553-.1.843-.175C150.335,59.548,150.487,59.294,150.625,59.03Z" fill="#fbdd6c"/>
  </g>
</svg>
