<svg xmlns="http://www.w3.org/2000/svg" width="19.693" height="35.437" viewBox="0 0 19.693 35.437">
  <g id="title_right" transform="matrix(0.951, 0.309, -0.309, 0.951, -417.147, -74.56)">
    <g id="グループ_176" data-name="グループ 176" transform="translate(201.837 -20.664) rotate(-11)">
      <path id="パス_1467" data-name="パス 1467" d="M228.446,37.306l-.021-.024h-.02A.193.193,0,0,0,228.446,37.306Z" fill="#fbdd6c"/>
      <path id="パス_1468" data-name="パス 1468" d="M228.473,37.321l-.026-.016.012.017Z" fill="#fbdd6c"/>
      <path id="パス_1469" data-name="パス 1469" d="M230.386,29.693c-.112-.585-.759-.627-.557-1.024a2.261,2.261,0,0,1-.966-.511c.027.216.138.53.082.648l-.341-.393a2.17,2.17,0,0,0-.415.831c-.106.368-.152.554-.193.745-.04.17-.079.343-.178.682-.026.087-.025.1-.183.188a1.64,1.64,0,0,0-.848,1.017,1.771,1.771,0,0,1-.23.5l-.008.014a.843.843,0,0,1,.147.287l-.22-.157a2.777,2.777,0,0,0-.185.4c.461-.25.6,1.068,1.378,1.7-.584-.421.248.89.1,1.1,0,0,.472.788.025.574a8.641,8.641,0,0,0,.632,1l.4-.05c0-.011.205-.133.44-.348a2.01,2.01,0,0,0,.6-.911c.244-.845.616-1.1.23-1.456-.037-.037-.213-.375-.248-.41.1-.214-.588-.318-.527-.415a2.511,2.511,0,0,0,.384-.845c.027-.092.4.777.551.684.252-.151.305-1.277.481-1.888l.146-.553a1.474,1.474,0,0,1-.1-.345c-.669-.357-.027.45-.655-.024A1.409,1.409,0,0,1,230.386,29.693Z" fill="#fbdd6c"/>
      <path id="パス_1470" data-name="パス 1470" d="M233.161,21.98c-.358-.845.148-.711.283-1.009-.33.132-.572-.231-.783-.58-.473.112-.72.426-.935,1.013-.007.018.092.561.086.581-.2.633-.412.493-.268.807.084.185.089.2.056.315-.036.1-.034.091-.215.182a1.89,1.89,0,0,0-.9.852c.3.76-.861,2.262-.213,2.757a.949.949,0,0,1-.293.167,1.941,1.941,0,0,0-.736.554l.195.225.058-.114c.139.258.081.369.221.625l.2-.123c-.1.73,1.222,1.513,1.829,2.1a.942.942,0,0,1,.225-.39c.117-.135.261-.3.592-.719.141-.058.178-.388.406-.544a4.327,4.327,0,0,0-1.945-1.2c.287.053.108-.229-.077-.5a1.069,1.069,0,0,1,1.025.159,1.341,1.341,0,0,1,.786.621l.59.622c.344-.1.034-.6.3-1.03a1.076,1.076,0,0,0,.111-.219,1.144,1.144,0,0,0-.092-.89l-.1.009c.038-.043.032-.089.043-.134-.21-.4.175-.423-.05-.644-.089-.085-.217-.212-.255-.162.02-.053.044-.068.193-.144a2.788,2.788,0,0,0,.446-.283c-.342-.848-1.061-1.593-1.039-2.093.622.632.289.168.607.468a.36.36,0,0,0-.221.174,5.034,5.034,0,0,0,.809,1.287,1.635,1.635,0,0,0,.257-.388c-.1-.168-.393-.988-.732-1.082C233.439,22.764,233.713,22.394,233.161,21.98Z" fill="#fbdd6c"/>
      <path id="パス_1471" data-name="パス 1471" d="M227.99,37.1l-.012-.025v-.009l-.472-1.114-.445-1.04q-.417-.958-.839-1.819c-.018.047-.028.072-.047.123-.235.82-.593,1.237-.2,1.6-.425.11-.353.862-.566,1.543a4.338,4.338,0,0,0-.027,1.519c-.155.528.956,1.518,1.766,1.786s.637-.323.777-.863c.06-.211.514-.632.5-.816-.3-.256.093-.253-.108-.47C227.858,37.445,227.606,37.315,227.99,37.1Z" fill="#fbdd6c"/>
      <path id="パス_1472" data-name="パス 1472" d="M238.048,3.248c-.34-.054-.511.092-.295.691.117.079.539.228.716.343a8.625,8.625,0,0,1,2,1.176,1.773,1.773,0,0,0-.263-1.954,10.885,10.885,0,0,0-.938-.569C238.94,2.814,238.076,3.035,238.048,3.248Z" fill="#fbdd6c"/>
      <path id="パス_1473" data-name="パス 1473" d="M238.686,4.748s.118.047.291.132l.63.316.623.325a1.8,1.8,0,0,1,.272.157c.059.129-.045.374-.028.345a5.419,5.419,0,0,1-.222.611,6.613,6.613,0,0,0-1.011-.945c.028-.111-.115-.169-.26-.248a3.3,3.3,0,0,1-.264-.3.48.48,0,0,0,.264.3l.26.248-.012.044c.074.361-.592.153-.885-.4-.532-.531-.021-.566-.624-1l.07.738a9.533,9.533,0,0,0,2.465,1.692c-.094.071-.223.115-.108.428.1.268-.162.472-.374,1.049-.162.443-.124,1.4-.268,1.573-.189.219-.554-.281-.507.072a2.041,2.041,0,0,1-.1,1.054,1.279,1.279,0,0,1,.083,1.263c-.109.3-.113.758-.276.9-.044-.065-.056-.109-.118-.19.015.182-.035.24-.113.246a2.492,2.492,0,0,0-.138,1.125,2.311,2.311,0,0,1-.514.6c-.007,0-.007.006-.009.01.19.528-.766-.249-.8-.172-.065.191.439.477.326.544.3.308-.1.36.163.6a5.225,5.225,0,0,1-1.314,1.986l-.2.119c-.032.1-.032.1.062.285.157.307.045.5-.16,1.156a1.686,1.686,0,0,0,.018.7,1.923,1.923,0,0,1-.269,1.19,5.56,5.56,0,0,1-.731,1.538c.055.02-.4.3-.363.6-.25-.58-.516-1.166-.819-1.726-.146-.725.451.387.326-.184-.045-.768-.876-.962-1.211-1.523a9,9,0,0,1,.508-1.27c.028-.1.028-.1-.067-.288-.154-.307.142-.5.349-1.157.235-.674.266-1.255.626-1.4l1.653.381-1.455-.5a1.419,1.419,0,0,0,.074-.567,2.573,2.573,0,0,1,.149-1.044,1.948,1.948,0,0,1,.447-.706,2.891,2.891,0,0,1,.241.249l.537.567c.957.517.467-.128.661-.1a3.424,3.424,0,0,1-1.006-1.136.69.69,0,0,0,.069-.135,1.3,1.3,0,0,1-.222-1.534,3.85,3.85,0,0,1,.388-.917.224.224,0,0,1-.093-.1c.023-.11.39-1.792.44-1.926a2.408,2.408,0,0,1,.492-.828c.1-.119.912,1.125.993.9.034-.093-.712-1.41-.773-1.572-.1-.268-.062-.431.148-1.006.171-.466.175-.978.335-1.141a.884.884,0,0,0,.243-.378.647.647,0,0,1,.18-.235A7.094,7.094,0,0,1,238.686,4.748Zm-2.374,5.865a1.956,1.956,0,0,0,.249.412c-.516-.077.309.519.486.878l.741.557c-.1-.187-.206-.373-.29-.563l-.238-.141c-.116-.264-.231-.508-.367-.772C236.882,10.777,236.6,10.688,236.312,10.613Z" fill="#fbdd6c"/>
    </g>
  </g>
</svg>
